<svg id="Page-1" xmlns="http://www.w3.org/2000/svg" width="13.297" height="13.297" viewBox="0 0 13.297 13.297">
  <g id="Social-Icons---Rounded">
    <g id="Linkedin">
      <path id="Rounded" d="M1.477,13.3H11.819A1.477,1.477,0,0,0,13.3,11.819V1.477A1.477,1.477,0,0,0,11.819,0H1.477A1.477,1.477,0,0,0,0,1.477V11.819A1.477,1.477,0,0,0,1.477,13.3Z" fill="#fff" fill-rule="evenodd"/>
      <path id="Path_39407" data-name="Path 39407" d="M19.6,19.6H17.63V16.243c0-.921-.35-1.436-1.079-1.436-.793,0-1.208.536-1.208,1.436V19.6h-1.9V13.2h1.9v.862A2.323,2.323,0,0,1,19.6,15.55Zm-8.431-7.241a1.181,1.181,0,1,1,1.172-1.181A1.177,1.177,0,0,1,11.173,12.363ZM10.191,19.6h1.983V13.2H10.191Z" transform="translate(-8.153 -8.153)" fill="#393738" fill-rule="evenodd"/>
    </g>
  </g>
</svg>
