<svg xmlns="http://www.w3.org/2000/svg" width="290.451" height="115.756" viewBox="0 0 290.451 115.756"><defs><style>.a{fill:#ebebeb;}.b{fill:#e0e0e0;}.c{fill:#f5f5f5;}.d{fill:#3c67a4;}.e{fill:#263238;}.f,.j,.l{fill:#fff;}.f,.o{opacity:0.4;}.g{fill:#7f3e3b;}.h,.k{opacity:0.2;}.i{fill:#803e3c;}.j{opacity:0.8;}.m{fill:#630f0f;}.n{fill:#ffb573;}.p{fill:#ed893e;}.q{fill:#ff8b7b;}.r{fill:#ff5652;}</style></defs><g transform="translate(-20166 -9929.747)"><rect class="a" width="290.451" height="0.145" transform="translate(20166 10019.27)"/><rect class="a" width="19.239" height="0.145" transform="translate(20408.107 10028.616)"/><rect class="a" width="5.048" height="0.145" transform="translate(20353.357 10030.196)"/><rect class="a" width="11.147" height="0.145" transform="translate(20396.379 10023.225)"/><rect class="a" width="25.089" height="0.145" transform="translate(20196.473 10024.201)"/><rect class="a" width="3.677" height="0.145" transform="translate(20226.738 10024.201)"/><rect class="a" width="54.419" height="0.145" transform="translate(20242.371 10026.652)"/><path class="a" d="M291.773,338.931h33.111a1.969,1.969,0,0,0,1.963-1.958h0a1.969,1.969,0,0,0-1.963-1.963H291.773a1.969,1.969,0,0,0-1.963,1.963h0a1.969,1.969,0,0,0,1.963,1.958Z" transform="translate(20044.541 9656.73)"/><path class="b" d="M358.83,315.241h1.1l4.2-27.4h-1.1Z" transform="translate(20015.615 9676.5)"/><path class="b" d="M329.91,315.241h1.1l4.2-27.4h-1.1Z" transform="translate(20027.734 9676.5)"/><path class="a" d="M328.2,305.258h21.592a3.131,3.131,0,0,0,2.986-2.608l3.294-22.882a2.207,2.207,0,0,0-2.231-2.608h-21.6a3.131,3.131,0,0,0-2.986,2.608l-3.282,22.858a2.213,2.213,0,0,0,2.225,2.632Z" transform="translate(20029.402 9680.977)"/><path class="c" d="M333.908,338.931h15.144a1.963,1.963,0,0,0,1.958-1.958h0a1.969,1.969,0,0,0-1.958-1.963H333.908a1.963,1.963,0,0,0-1.958,1.963h0a1.963,1.963,0,0,0,1.958,1.958Z" transform="translate(20026.881 9656.73)"/><path class="b" d="M321.13,365.368h1.1l4.2-23.608h-1.1Z" transform="translate(20031.414 9653.901)"/><path class="b" d="M288.27,365.368h1.1l4.2-23.608h-1.1Z" transform="translate(20045.188 9653.901)"/><path class="b" d="M330.028,365.368h-1.1l-4.2-23.608h1.1Z" transform="translate(20029.904 9653.901)"/><path class="b" d="M362.894,365.368h-1.1l-4.2-23.608h1.1Z" transform="translate(20016.135 9653.901)"/><path class="a" d="M98.643,338.927H65.583a1.969,1.969,0,0,1-1.963-1.958h0A1.969,1.969,0,0,1,65.583,335H98.695a1.969,1.969,0,0,1,1.963,1.963h0a1.969,1.969,0,0,1-2.016,1.963Z" transform="translate(20139.338 9656.735)"/><path class="b" d="M54.444,315.241h-1.1l-4.2-27.4h1.1Z" transform="translate(20145.406 9676.5)"/><path class="b" d="M83.368,315.241h-1.1l-4.2-27.4h1.1Z" transform="translate(20133.281 9676.5)"/><path class="a" d="M67.158,305.241H45.577a3.131,3.131,0,0,1-2.98-2.631L39.3,279.728a2.207,2.207,0,0,1,2.231-2.608H63.109a3.131,3.131,0,0,1,2.986,2.608l3.294,22.882a2.213,2.213,0,0,1-2.231,2.632Z" transform="translate(20149.543 9680.992)"/><path class="c" d="M69.442,338.927H54.3a1.963,1.963,0,0,1-1.958-1.958h0A1.969,1.969,0,0,1,54.3,335H69.442a1.963,1.963,0,0,1,1.958,1.963h0a1.963,1.963,0,0,1-1.958,1.963Z" transform="translate(20144.064 9656.735)"/><path class="b" d="M92.144,365.368h-1.1l-4.2-23.608h1.1Z" transform="translate(20129.605 9653.901)"/><path class="b" d="M125,365.368h-1.1L119.7,341.76h1.1Z" transform="translate(20115.834 9653.901)"/><path class="b" d="M83.25,365.368h1.1l4.2-23.608h-1.1Z" transform="translate(20131.109 9653.901)"/><path class="b" d="M50.38,365.368h1.1l4.2-23.608h-1.1Z" transform="translate(20144.887 9653.901)"/><path class="a" d="M329.654,338.927H296.583a1.969,1.969,0,0,1-1.963-1.958h0A1.969,1.969,0,0,1,296.583,335h33.111a1.969,1.969,0,0,1,1.963,1.963h0a1.969,1.969,0,0,1-2,1.963Z" transform="translate(20042.525 9656.735)"/><path class="b" d="M285.458,315.241h-1.1l-4.2-27.4h1.1Z" transform="translate(20048.584 9676.5)"/><path class="b" d="M314.384,315.241h-1.1l-4.2-27.4h1.1Z" transform="translate(20036.465 9676.5)"/><path class="a" d="M298.163,305.241H276.589a3.125,3.125,0,0,1-2.992-2.631L270.3,279.728a2.207,2.207,0,0,1,2.231-2.608h21.575a3.125,3.125,0,0,1,2.986,2.608l3.3,22.882a2.207,2.207,0,0,1-2.231,2.631Z" transform="translate(20052.73 9680.992)"/><path class="c" d="M300.458,338.931H285.313a1.969,1.969,0,0,1-1.963-1.958h0a1.969,1.969,0,0,1,1.963-1.963h15.144a1.969,1.969,0,0,1,1.958,1.963h0a1.963,1.963,0,0,1-1.958,1.958Z" transform="translate(20047.248 9656.73)"/><path class="b" d="M323.164,365.368h-1.1l-4.2-23.608h1.1Z" transform="translate(20032.785 9653.901)"/><path class="b" d="M356.024,365.368h-1.1l-4.2-23.608h1.1Z" transform="translate(20019.014 9653.901)"/><path class="b" d="M314.26,365.368h1.1l4.2-23.608h-1.1Z" transform="translate(20034.295 9653.901)"/><path class="b" d="M281.4,365.368h1.1L286.7,341.76h-1.1Z" transform="translate(20048.066 9653.901)"/><path class="a" d="M377.143,338.931h33.111a1.969,1.969,0,0,0,1.963-1.958h0a1.969,1.969,0,0,0-1.963-1.963H377.143a1.969,1.969,0,0,0-1.963,1.963h0A1.969,1.969,0,0,0,377.143,338.931Z" transform="translate(20008.764 9656.73)"/><path class="b" d="M444.2,315.241h1.1l4.2-27.4h-1.1Z" transform="translate(19979.836 9676.5)"/><path class="b" d="M415.28,315.241h1.1l4.206-27.4h-1.1Z" transform="translate(19991.957 9676.5)"/><path class="a" d="M413.558,305.258h21.575a3.131,3.131,0,0,0,2.986-2.608l3.294-22.882a2.207,2.207,0,0,0-2.231-2.608H417.6a3.12,3.12,0,0,0-2.98,2.608l-3.3,22.858a2.213,2.213,0,0,0,2.236,2.632Z" transform="translate(19993.633 9680.977)"/><path class="c" d="M419.278,338.931h15.144a1.963,1.963,0,0,0,1.958-1.958h0a1.963,1.963,0,0,0-1.958-1.963H419.278a1.969,1.969,0,0,0-1.958,1.963h0a1.963,1.963,0,0,0,1.958,1.958Z" transform="translate(19991.102 9656.73)"/><path class="b" d="M406.5,365.368h1.1l4.2-23.608h-1.1Z" transform="translate(19995.637 9653.901)"/><path class="b" d="M373.64,365.368h1.1l4.2-23.608h-1.1Z" transform="translate(20009.406 9653.901)"/><path class="b" d="M415.4,365.368h-1.1l-4.2-23.608h1.1Z" transform="translate(19994.127 9653.901)"/><path class="b" d="M448.264,365.368h-1.1l-4.2-23.608h1.1Z" transform="translate(19980.357 9653.901)"/><path class="a" d="M153.433,338.931h33.111a1.969,1.969,0,0,0,1.963-1.958h0a1.969,1.969,0,0,0-1.963-1.963H153.433a1.969,1.969,0,0,0-1.963,1.963h0A1.969,1.969,0,0,0,153.433,338.931Z" transform="translate(20102.52 9656.73)"/><path class="b" d="M220.5,315.241h1.1l4.2-27.4h-1.1Z" transform="translate(20073.588 9676.5)"/><path class="b" d="M191.57,315.241h1.1l4.2-27.4h-1.1Z" transform="translate(20085.713 9676.5)"/><path class="a" d="M189.848,305.258h21.575a3.131,3.131,0,0,0,2.986-2.608l3.294-22.882a2.207,2.207,0,0,0-2.231-2.608h-21.58a3.119,3.119,0,0,0-2.98,2.608l-3.3,22.858a2.213,2.213,0,0,0,2.236,2.632Z" transform="translate(20087.389 9680.977)"/><path class="c" d="M195.588,338.931h15.144a1.969,1.969,0,0,0,1.963-1.958h0a1.969,1.969,0,0,0-1.963-1.963H195.588a1.969,1.969,0,0,0-1.958,1.963h0a1.963,1.963,0,0,0,1.958,1.958Z" transform="translate(20084.85 9656.73)"/><path class="b" d="M182.79,365.368h1.1l4.2-23.608H187Z" transform="translate(20089.393 9653.901)"/><path class="b" d="M149.93,365.368h1.1l4.2-23.608h-1.1Z" transform="translate(20103.166 9653.901)"/><path class="b" d="M191.694,365.368h-1.1l-4.2-23.608h1.1Z" transform="translate(20087.883 9653.901)"/><path class="b" d="M224.554,365.368h-1.1L219.25,341.76h1.1Z" transform="translate(20074.113 9653.901)"/><g transform="translate(20198.596 10032.352)"><ellipse class="c" cx="112.631" cy="6.576" rx="112.631" ry="6.576" transform="translate(0 0)"/></g><g transform="translate(20274.262 9932.483)"><path class="d" d="M214.467,238.7c.116,3.265-5.542,10.561-5.542,10.561s-6.163-6.872-6.28-10.137,1.667-5.977,5.7-6.123S214.369,235.44,214.467,238.7Z" transform="translate(-193.188 -233)"/><rect class="e" width="0.395" height="86.647" transform="translate(15.564 5.908)"/><path class="d" d="M195.38,387.83a1.255,1.255,0,0,0-1.243,1.47c.842,4.566,5.553,8.063,11.24,8.063s10.392-3.485,11.235-8.063a1.249,1.249,0,0,0-1.237-1.47Z" transform="translate(-189.616 -297.889)"/><path class="d" d="M202.034,269.927a18.42,18.42,0,0,0-7.511-4.647C192.153,267.714,194.425,271.054,202.034,269.927Z" transform="translate(-189.41 -246.528)"/><path class="e" d="M205.677,273.974A19.475,19.475,0,0,0,195.11,265.3l.076-.256a19.683,19.683,0,0,1,10.723,8.806Z" transform="translate(-190.032 -246.428)"/><path class="d" d="M197.848,306.3c0-7.842-5.71-10.021-10.253-6.361h0c-3.23,3.34-.174,7.894,10.253,6.361a27.977,27.977,0,0,0-2.463-2.184A27.977,27.977,0,0,1,197.848,306.3Z" transform="translate(-186.368 -260.329)"/><path class="e" d="M202.873,313.083c-2.492-4.5-7.929-9.91-14.453-11.868l.076-.256c6.6,1.981,12.094,7.447,14.61,12Z" transform="translate(-187.228 -261.482)"/><path class="d" d="M220.42,285.892a23.5,23.5,0,0,1,9.631-5.972C233.066,283.057,230.2,287.332,220.42,285.892Z" transform="translate(-200.639 -252.664)"/><path class="e" d="M213.532,291.091l-.232-.128c2.364-4.27,7.517-9.4,13.715-11.264l.076.256A24.913,24.913,0,0,0,213.532,291.091Z" transform="translate(-197.655 -252.572)"/><path class="d" d="M220.78,322.7a30.259,30.259,0,0,1,11.24-9.294C236.424,316.919,233.5,322.861,220.78,322.7Z" transform="translate(-200.79 -266.7)"/><path class="e" d="M213.53,330.044l-.25-.093c2.283-5.844,7.97-13.268,15.539-16.7l.11.244C221.43,316.892,215.789,324.258,213.53,330.044Z" transform="translate(-197.647 -266.633)"/></g><g transform="translate(20202.305 9929.747)"><path class="d" d="M133.2,362.937h-39.4a2.324,2.324,0,0,1-2.324-2.324h0a2.324,2.324,0,0,1,2.324-2.324h39.4a2.324,2.324,0,0,1,2.324,2.324h0A2.324,2.324,0,0,1,133.2,362.937Z" transform="translate(-74.639 -282.773)"/><path class="e" d="M80.579,334.705H79.272l-5-32.635h1.307Z" transform="translate(-67.431 -259.211)"/><path class="e" d="M115.024,334.705h-1.313l-5-32.635h1.313Z" transform="translate(-81.865 -259.211)"/><path class="d" d="M95.709,322.859H70.016a3.718,3.718,0,0,1-3.549-3.108l-3.927-27.244A2.637,2.637,0,0,1,65.2,289.4H90.893a3.729,3.729,0,0,1,3.555,3.108l3.921,27.244a2.637,2.637,0,0,1-2.661,3.108Z" transform="translate(-62.497 -253.901)"/><path class="f" d="M62.546,293.009l3.927,27.244a3.526,3.526,0,0,0,.819,1.783,1.315,1.315,0,0,0,2.417-.848L65.52,292.074c-.2-1.354-2.045-1.952-2.666-.848a2.846,2.846,0,0,0-.308,1.783Z" transform="translate(-62.504 -254.426)"/><path class="d" d="M98.462,362.937H80.454a2.324,2.324,0,0,1-2.324-2.324h0a2.324,2.324,0,0,1,2.324-2.324H98.462a2.324,2.324,0,0,1,2.324,2.324h0A2.324,2.324,0,0,1,98.462,362.937Z" transform="translate(-69.049 -282.773)"/><path class="f" d="M98.462,362.937H80.454a2.324,2.324,0,0,1-2.324-2.324h0a2.324,2.324,0,0,1,2.324-2.324H98.462a2.324,2.324,0,0,1,2.324,2.324h0A2.324,2.324,0,0,1,98.462,362.937Z" transform="translate(-69.049 -282.773)"/><path class="e" d="M125.474,394.394h-1.313l-5-28.1h1.307Z" transform="translate(-86.244 -286.126)"/><path class="e" d="M164.6,394.394h-1.313l-5-28.1H159.6Z" transform="translate(-102.644 -286.126)"/><path class="e" d="M114.88,394.394h1.307l5-28.1h-1.307Z" transform="translate(-84.451 -286.126)"/><path class="e" d="M75.74,394.394h1.313l5-28.1H80.747Z" transform="translate(-68.047 -286.126)"/><path class="g" d="M187.1,368.19l-6.477,2.817,3.712,4.333,5.42-2.347Z" transform="translate(-112.002 -286.922)"/><path class="h" d="M187.093,368.2l-6.483,2.817,2.085,2.428,5.885-2.556Z" transform="translate(-111.998 -286.926)"/><path class="d" d="M184.874,380.472l.738-.139a1.33,1.33,0,0,0,.976-.8h0l.465.238a1.377,1.377,0,0,0,.86.122l10.073-1.963a3.979,3.979,0,0,0-.761-1.917s-4.467.622-5.722-.476a.337.337,0,0,0-.349-.07c-.819.349-4.066,1.632-6.076,1.371a.407.407,0,0,0-.441.476,22.171,22.171,0,0,1,.238,3.16Z" transform="translate(-113.682 -289.962)"/><path class="d" d="M196.062,374.464h-.035a.1.1,0,0,1-.07-.093c-.041-.656.273-1.865.714-2.074a.354.354,0,0,1,.407.081.418.418,0,0,1,.139.331c0,.633-1.034,1.685-1.08,1.743A.11.11,0,0,1,196.062,374.464Zm.761-1.992h-.058c-.279.134-.552.976-.581,1.6.337-.372.842-1.011.836-1.383a.244.244,0,0,0-.076-.174.157.157,0,0,0-.122-.046Z" transform="translate(-118.429 -288.63)"/><path class="d" d="M197.022,375.479a6.914,6.914,0,0,1-.976-.076.11.11,0,0,1-.087-.081.116.116,0,0,1,.041-.11c.5-.412,1.667-.877,2.091-.639a.366.366,0,0,1,.18.378.47.47,0,0,1-.186.308,1.981,1.981,0,0,1-1.063.221Zm-.674-.256a2.985,2.985,0,0,0,1.609-.139.233.233,0,0,0,.1-.163c0-.1,0-.139-.064-.163-.267-.145-1.115.128-1.644.465Z" transform="translate(-118.43 -289.57)"/><path class="e" d="M91.54,326.231l2.777,5.809c4.1,8.58,14.191,12.9,22.249,9.521,4.705-1.981,9.84-6.146,13.361-8.051,2.992,6.547,8.586,13.779,12.867,18.8l8.667-4.357c-3.236-7.43-8.278-19.025-11.473-26.559a7.709,7.709,0,0,0-6.733-4.647C118.825,316.339,91.54,326.231,91.54,326.231Z" transform="translate(-74.669 -265.359)"/><path class="g" d="M158.938,400.691l-7.058-.331,1.423,5.53,5.9.279Z" transform="translate(-99.957 -300.404)"/><path class="h" d="M158.934,400.691l-7.064-.331.8,3.1,6.413.3Z" transform="translate(-99.953 -300.404)"/><path class="d" d="M152.46,412.215h.755a1.342,1.342,0,0,0,1.115-.581h0l.407.314a1.319,1.319,0,0,0,.825.285h10.253a3.956,3.956,0,0,0-.378-2.027s-4.5-.244-5.524-1.563a.314.314,0,0,0-.325-.128c-.871.18-4.281.825-6.227.18a.407.407,0,0,0-.529.383,21.831,21.831,0,0,1-.372,3.137Z" transform="translate(-100.2 -303.819)"/><path class="d" d="M164.854,407.66a.11.11,0,0,1-.058,0,.1.1,0,0,1-.046-.1c.087-.645.622-1.778,1.1-1.894a.349.349,0,0,1,.383.151.447.447,0,0,1,.076.354c-.11.627-1.342,1.458-1.394,1.493A.1.1,0,0,1,164.854,407.66Zm1.08-1.818H165.9c-.3.076-.726.854-.889,1.458.407-.3,1.017-.825,1.086-1.2a.232.232,0,0,0-.041-.186.139.139,0,0,0-.122-.064Z" transform="translate(-105.35 -302.622)"/><path class="d" d="M166.382,409.012a5.625,5.625,0,0,1-1.563-.325.1.1,0,0,1-.07-.093.11.11,0,0,1,.052-.1c.581-.308,1.807-.54,2.178-.227a.343.343,0,0,1,.1.4.459.459,0,0,1-.244.267A1.1,1.1,0,0,1,166.382,409.012Zm-1.237-.441a3.014,3.014,0,0,0,1.6.168.261.261,0,0,0,.134-.139c.029-.1,0-.145-.035-.174C166.638,408.228,165.731,408.338,165.145,408.57Z" transform="translate(-105.351 -303.654)"/><path class="e" d="M84.59,329.12l.046,6.14c.076,9.056,7.743,11.688,16.922,12.379,5.35.4,12.582.517,16.753.436.61,6.343,2.591,19.268,4.583,24.682l9.016-.627c.238-7.685.581-18.589.877-25.815a7.592,7.592,0,0,0-4.322-6.913C114.948,332.733,84.59,329.12,84.59,329.12Z" transform="translate(-71.756 -270.548)"/><path class="h" d="M158.177,346.912a64.43,64.43,0,0,0,5.356,8.882c-.046,1.266-.093,2.614-.145,4.008-3.189-5.036-5.228-12.9-5.228-12.9Z" transform="translate(-102.589 -277.999)"/><path class="i" d="M129.751,262.322l.581.3.72.36c.494.227.993.459,1.5.662a25.492,25.492,0,0,0,3.021,1.04,16.875,16.875,0,0,0,2.9.517,10.377,10.377,0,0,0,2.608-.128l-1.743,1.046a5.31,5.31,0,0,0,1.348-1.5,22.741,22.741,0,0,0,1.441-2.562c.471-.941.906-1.934,1.336-2.951l1.278-3.073.064-.145a2.492,2.492,0,0,1,4.781.738,27.214,27.214,0,0,1,.058,3.822,30.088,30.088,0,0,1-.441,3.828,22.423,22.423,0,0,1-1.1,3.962,13.17,13.17,0,0,1-2.568,4.264,3.485,3.485,0,0,1-1.319.889l-.43.157a17.144,17.144,0,0,1-5.275,1.057,21.191,21.191,0,0,1-5.048-.389,25.887,25.887,0,0,1-4.607-1.348,21.648,21.648,0,0,1-2.161-.959c-.354-.18-.7-.36-1.057-.581l-.534-.314-.616-.378a4.914,4.914,0,0,1,4.8-8.568Z" transform="translate(-87.5 -239.214)"/><path class="g" d="M162.8,257.054l-1.952-2.085c-1.127-2.765,2.684-3.6,2.684-3.6l1.673-1.162a1.516,1.516,0,0,1,1.923.331l1.365,1.446a1.568,1.568,0,0,1,.093,2.19l-1.272,1.22a3.09,3.09,0,0,1-1.319.749Z" transform="translate(-103.629 -237.39)"/><path class="d" d="M117.589,260.214c1.2-1.609,4.862-1.2,8.592,2.44.924-.041,3.317,2.126,6.094,2.829s3.689,5.693,3.183,7.685c-.529,2.091-1.574,3.485-4.165,3.758s-6-1.4-8.748-3.485S115.457,263.066,117.589,260.214Z" transform="translate(-85.347 -241.294)"/><path class="d" d="M100.855,258.66a85.566,85.566,0,0,0-15.481,1.5,6.314,6.314,0,0,0-4.81,7.819c3.822,14.522,1.661,30.422,1.963,33.332,0,0,30.428,4.38,35.092-4.647,2.48-12.048-4.386-16.922-8.04-31.3A9.294,9.294,0,0,0,100.855,258.66Z" transform="translate(-69.978 -241.018)"/><path class="j" d="M100.855,258.66a85.566,85.566,0,0,0-15.481,1.5,6.314,6.314,0,0,0-4.81,7.819c3.822,14.522,1.661,30.422,1.963,33.332,0,0,30.428,4.38,35.092-4.647,2.48-12.048-4.386-16.922-8.04-31.3A9.294,9.294,0,0,0,100.855,258.66Z" transform="translate(-69.978 -241.018)"/><g class="k" transform="translate(14.78 27.666)"><path class="d" d="M91.021,329.8h0a.139.139,0,0,1-.122-.157,3,3,0,0,1,.052-.54.145.145,0,0,1,.151-.128.134.134,0,0,1,.122.151,1.917,1.917,0,0,1-.052.552A.139.139,0,0,1,91.021,329.8Z" transform="translate(-89.18 -298.155)"/><path class="d" d="M90.041,307.082h0a.139.139,0,0,1-.128-.145v-1.121a.145.145,0,0,1,.139-.139h0a.145.145,0,0,1,.134.145c0,.4,0,.773-.035,1.127a.134.134,0,0,1-.11.134Zm.046-2.248a.139.139,0,0,1-.139-.139v-1.127a.137.137,0,1,1,.273,0v1.127A.139.139,0,0,1,90.088,304.834Zm-.029-2.254a.134.134,0,0,1-.134-.134c0-.372,0-.744-.029-1.127a.139.139,0,0,1,.134-.145h0a.139.139,0,0,1,.139.139v1.127a.134.134,0,0,1-.134.139Zm-.064-2.248a.139.139,0,0,1-.139-.134,9.19,9.19,0,0,0-.046-1.127.145.145,0,0,1,.134-.145h0a.139.139,0,0,1,.139.134,9.049,9.049,0,0,0,.046,1.127A.145.145,0,0,1,89.995,300.332Zm-.1-2.271a.134.134,0,0,1-.134-.128c0-.372-.041-.749-.058-1.127a.139.139,0,0,1,.128-.145h0a.145.145,0,0,1,.139.134l.052,1.121a.134.134,0,0,1-.128.145Zm-.116-2.248a.145.145,0,0,1-.139-.128c0-.372-.041-.749-.064-1.127a.139.139,0,1,1,.279,0c0,.378.041.755.064,1.127a.139.139,0,0,1-.128.145Zm-.134-2.242a.139.139,0,0,1-.139-.134c0-.372-.046-.749-.076-1.121a.14.14,0,1,1,.279-.017c0,.372.046.749.076,1.121a.139.139,0,0,1-.134.145Zm-.151-2.248a.139.139,0,0,1-.139-.134c0-.372-.052-.749-.081-1.121a.139.139,0,0,1,.279,0c0,.372.052.744.081,1.121a.145.145,0,0,1-.134.151Zm-.168-2.248a.134.134,0,0,1-.134-.128l-.087-1.121a.139.139,0,1,1,.273,0l.087,1.121a.139.139,0,0,1-.128.151Zm-.174-2.242a.139.139,0,0,1-.139-.128l-.093-1.121a.139.139,0,0,1,.122-.151.134.134,0,0,1,.151.128l.093,1.121a.139.139,0,0,1-.122.151Zm-.192-2.248a.134.134,0,0,1-.139-.122c-.035-.383-.07-.755-.1-1.121a.14.14,0,0,1,.279-.029c.035.372.07.744.1,1.127a.134.134,0,0,1-.122.145Zm-.209-2.207a.145.145,0,0,1-.139-.122c-.035-.383-.07-.761-.11-1.121a.139.139,0,0,1,.128-.151.134.134,0,0,1,.151.122c.035.366.076.738.11,1.121a.139.139,0,0,1-.128.151Zm-.221-2.236a.134.134,0,0,1-.139-.128q-.064-.581-.122-1.115a.145.145,0,0,1,.122-.157.139.139,0,0,1,.151.128c.041.349.081.726.122,1.115a.139.139,0,0,1-.122.157Z" transform="translate(-88.078 -277.1)"/><path class="d" d="M88.138,276.7a.134.134,0,0,1-.134-.1l-.064-.552a.139.139,0,0,1,.273-.029l.064.517a.151.151,0,0,1-.116.168Z" transform="translate(-87.94 -275.917)"/></g><path class="i" d="M84.69,280.742,84,282.31l-.715,1.661c-.476,1.115-.918,2.242-1.359,3.358s-.819,2.254-1.2,3.369-.68,2.236-.958,3.346l-.163-2.027a.674.674,0,0,1,.046.273,3.138,3.138,0,0,1,.192.476,8.987,8.987,0,0,0,.7,1.162,25.606,25.606,0,0,0,2.091,2.62c.784.895,1.632,1.783,2.509,2.672l2.666,2.684.081.081a2.486,2.486,0,0,1-2.626,4.066,34.549,34.549,0,0,1-3.822-1.743,36.931,36.931,0,0,1-3.619-2.161,24.732,24.732,0,0,1-3.485-2.829,17.754,17.754,0,0,1-1.679-1.905c-.279-.389-.546-.8-.8-1.2-.256-.5-.488-1.011-.709-1.528a2.969,2.969,0,0,1-.221-1.441l.058-.581a39.226,39.226,0,0,1,.627-4.293,42.308,42.308,0,0,1,1.086-4.177c.407-1.365.883-2.69,1.406-4,.267-.651.534-1.307.837-1.952.151-.319.3-.645.459-.964l.529-1.022a4.926,4.926,0,0,1,8.888,4.229Z" transform="translate(-66.03 -247.294)"/><path class="g" d="M97.31,323.441l-.982,1.5c-.645,2.9,3.247,3.1,3.247,3.1l1.841.848a1.5,1.5,0,0,0,1.836-.645l1.1-1.656a1.574,1.574,0,0,0-.267-2.178l-1.464-.988a3.061,3.061,0,0,0-1.423-.517l-2.271-.232A1.743,1.743,0,0,0,97.31,323.441Z" transform="translate(-76.645 -267.843)"/><path class="d" d="M80.113,263.812c-1.969-.366-4.647,3.451-5.065,7.668-1.673,1.743-1.83,4.607-3.2,7.122-2.771,5.158-.447,6.86,1.383,7.825,3.9,2.068,8.278,1.3,9.44-1.022a23.907,23.907,0,0,0,2.759-8.464C85.922,271.922,83.6,264.492,80.113,263.812Z" transform="translate(-65.879 -243.167)"/><path class="l" d="M130.677,281.434l-6.779.517a.807.807,0,0,1-.761-.581l-.935-2.957a.465.465,0,0,1,.378-.651l6.785-.523a.8.8,0,0,1,.761.581l.929,2.951a.465.465,0,0,1-.378.662Z" transform="translate(-87.502 -248.805)"/><path class="g" d="M107.674,256.662a3.973,3.973,0,0,0-2-1.673,3.689,3.689,0,0,1-.215-2.463L96.05,250.15c.929,3.009,1.661,5.385.622,6.936,1.882.993,5.228,2.9,8.865,3.108C108.266,260.339,108.342,257.905,107.674,256.662Z" transform="translate(-76.559 -237.452)"/><path class="h" d="M107.121,254.74H100.15c2.324,2.184,5.646,2.852,7.087,1.818A3.671,3.671,0,0,1,107.121,254.74Z" transform="translate(-78.277 -239.375)"/><path class="b" d="M110.339,238.329c1.162-1.621,1.475-4.031.581-4.363.076-1.638-.122-3.358-1.743-3.642a3.218,3.218,0,0,0-3.782,3.1C103.06,236.11,106.789,239.229,110.339,238.329Z" transform="translate(-80.171 -229.122)"/><path class="g" d="M92.84,236.033c1.162,4.281,2.016,7.168,4.9,8.493,5.739,2.632,8.266-.343,8.429-4.891.145-4.066-1.743-10.416-6.343-11.246a6.111,6.111,0,0,0-6.982,7.645Z" transform="translate(-75.12 -228.29)"/><path class="e" d="M108.317,247.506a4.114,4.114,0,0,0,.72-.1.116.116,0,0,0,.087-.151.145.145,0,0,0-.163-.1,3.654,3.654,0,0,1-3.09-.7.134.134,0,0,0-.18,0,.122.122,0,0,0,0,.18,3.822,3.822,0,0,0,2.626.871Z" transform="translate(-80.583 -235.888)"/><path class="b" d="M90.64,241.024c1.679-1.109,2.777-3.27,2.068-3.892.639-1.5.906-3.695-.354-4.008s-3.677-.418-4.618,1.6C84.575,236.43,87,240.641,90.64,241.024Z" transform="translate(-72.462 -230.243)"/><path class="h" d="M101.979,241.038a2.033,2.033,0,0,0-1.539.238,3.979,3.979,0,0,0,1.539-.238Z" transform="translate(-78.399 -233.608)"/><path class="h" d="M102.211,241.72a1.684,1.684,0,0,0-1.3.581A3.364,3.364,0,0,0,102.211,241.72Z" transform="translate(-78.596 -233.918)"/><path class="h" d="M113.4,238.884s.314-.465.581-.261a.86.86,0,0,1-.581.261Z" transform="translate(-83.83 -232.599)"/><path class="h" d="M113.58,239.541s.25-.412.476-.07A.412.412,0,0,1,113.58,239.541Z" transform="translate(-83.906 -232.919)"/><path class="h" d="M106.866,232.634a12.564,12.564,0,0,0-3.886.465,35.1,35.1,0,0,0,3.886-.465Z" transform="translate(-79.463 -230.107)"/><path class="h" d="M107.487,233.71a13.05,13.05,0,0,0-4.4,1.022A24.512,24.512,0,0,0,107.487,233.71Z" transform="translate(-79.509 -230.562)"/><path class="g" d="M91.365,246.974a4.159,4.159,0,0,0,2.748,1.661c1.458.209,2.01-1.162,1.458-2.428-.505-1.162-1.87-2.655-3.265-2.271a1.9,1.9,0,0,0-.941,3.038Z" transform="translate(-74.412 -234.821)"/><path class="e" d="M105.132,240.554c.07.354.32.581.546.552s.36-.378.29-.726-.314-.581-.546-.552S105.044,240.2,105.132,240.554Z" transform="translate(-80.354 -233.125)"/><path class="e" d="M111.605,239.334c.07.354.314.581.546.552s.36-.372.29-.726-.319-.581-.546-.552S111.53,238.98,111.605,239.334Z" transform="translate(-83.069 -232.613)"/><path class="m" d="M109.62,240.77l.581,2.974a2.585,2.585,0,0,0,1.743-.581,6.268,6.268,0,0,0-2.324-2.393Z" transform="translate(-82.246 -233.52)"/><path class="b" d="M102.643,238.414a.238.238,0,0,1-.11,0,.209.209,0,0,1-.139-.261,2.126,2.126,0,0,1,1.319-1.429.209.209,0,0,1,.261.145.215.215,0,0,1-.145.261h0a1.708,1.708,0,0,0-1.028,1.162A.215.215,0,0,1,102.643,238.414Z" transform="translate(-79.214 -231.821)"/><path class="b" d="M113.4,236.565a.215.215,0,0,1-.192-.058,1.656,1.656,0,0,0-1.429-.534.209.209,0,0,1-.25-.168.221.221,0,0,1,.168-.25,2.1,2.1,0,0,1,1.847.656.209.209,0,0,1,0,.3A.186.186,0,0,1,113.4,236.565Z" transform="translate(-83.045 -231.325)"/><path class="d" d="M108.433,267.882c-4.967-.482-15.034-7.1-11.159-8.5,2.486,2.736,6.971,3.451,8.905,3.451a3.023,3.023,0,0,0-.354-4.351C107.846,258.3,111.9,264.519,108.433,267.882Z" transform="translate(-76.708 -240.94)"/></g><g transform="translate(20345.289 9935.591)"><path class="d" d="M340.054,362.5h39.4a2.324,2.324,0,0,0,2.324-2.324h0a2.324,2.324,0,0,0-2.324-2.324h-39.4a2.324,2.324,0,0,0-2.324,2.324h0A2.324,2.324,0,0,0,340.054,362.5Z" transform="translate(-320.831 -288.433)"/><path class="e" d="M419.9,334.275h1.313l5-32.635H424.9Z" transform="translate(-355.269 -264.875)"/><path class="e" d="M385.45,334.275h1.313l5-32.635h-1.307Z" transform="translate(-340.831 -264.875)"/><path class="d" d="M383.41,322.389H409.1a3.73,3.73,0,0,0,3.555-3.108l3.921-27.244a2.637,2.637,0,0,0-2.661-3.108H388.226a3.718,3.718,0,0,0-3.549,3.108l-3.927,27.244a2.637,2.637,0,0,0,2.661,3.108Z" transform="translate(-338.843 -259.548)"/><path class="f" d="M437.281,292.577l-3.921,27.244a3.584,3.584,0,0,1-.825,1.783,1.315,1.315,0,0,1-2.417-.848l4.194-29.115c.192-1.354,2.039-1.958,2.66-.848A2.811,2.811,0,0,1,437.281,292.577Z" transform="translate(-359.544 -260.088)"/><path class="d" d="M390.224,362.5h18.008a2.324,2.324,0,0,0,2.324-2.324h0a2.324,2.324,0,0,0-2.324-2.324H390.224a2.324,2.324,0,0,0-2.324,2.324h0A2.324,2.324,0,0,0,390.224,362.5Z" transform="translate(-341.857 -288.433)"/><path class="f" d="M390.224,362.5h18.008a2.324,2.324,0,0,0,2.324-2.324h0a2.324,2.324,0,0,0-2.324-2.324H390.224a2.324,2.324,0,0,0-2.324,2.324h0A2.324,2.324,0,0,0,390.224,362.5Z" transform="translate(-341.857 -288.433)"/><path class="e" d="M375.01,393.964h1.307l5.007-28.1h-1.313Z" transform="translate(-336.455 -291.79)"/><path class="e" d="M335.88,393.964h1.307l5-28.1h-1.307Z" transform="translate(-320.056 -291.79)"/><path class="e" d="M385.6,393.964h-1.313l-5-28.1H380.6Z" transform="translate(-338.249 -291.79)"/><path class="e" d="M424.734,393.964h-1.313l-5-28.1h1.313Z" transform="translate(-354.648 -291.79)"/><path class="e" d="M353.223,254.744c1.406,1.841,2.138,1.359,3.085-.964.581-1.493,2.254-.836,2.643-3.485.157-1.1-3.323-3.212-5.228-2.643S352.149,253.309,353.223,254.744Z" transform="translate(-326.961 -242.209)"/><path d="M341.31,280.407a4.688,4.688,0,0,0-5.809,3.212l-.093.314-.244.854-.285.941c-.2.627-.407,1.255-.639,1.865a27.034,27.034,0,0,1-1.5,3.427,11.675,11.675,0,0,1-1.743,2.486,4.336,4.336,0,0,1-.651.581c-.349-.227-.7-.465-1.057-.732a35.536,35.536,0,0,1-2.742-2.289c-.924-.825-1.824-1.708-2.73-2.614s-1.812-1.859-2.678-2.73l-.1-.1a2.364,2.364,0,0,0-3.88,2.509,33.491,33.491,0,0,0,1.795,3.886,39.725,39.725,0,0,0,2.231,3.66,30.108,30.108,0,0,0,2.788,3.485,19.611,19.611,0,0,0,3.747,3.189,3.6,3.6,0,0,0,1.865.552h.349a10.2,10.2,0,0,0,3.834-.726,11.711,11.711,0,0,0,3.085-1.83,17.879,17.879,0,0,0,3.909-4.589,28.552,28.552,0,0,0,2.324-4.781c.308-.807.581-1.609.831-2.428.122-.412.244-.825.349-1.243l.151-.633.157-.715A4.705,4.705,0,0,0,341.31,280.407Z" transform="translate(-312.142 -255.899)"/><path class="n" d="M309.261,286.993l1.464,1.162a5.14,5.14,0,0,0,1.975.964l2,.494a2.475,2.475,0,0,0,2.51-.842h0a2.463,2.463,0,0,0-.279-3.416,9.725,9.725,0,0,0-2.475-1.435l-2.051-1.2a1.65,1.65,0,0,0-2.1.372l-1.29,1.563a1.65,1.65,0,0,0,.244,2.341Z" transform="translate(-308.639 -256.85)"/><path class="e" d="M366.072,275.171c-4.8.389-10.206,1-14.279,2.9a5.17,5.17,0,0,0-2.835,5.4,75.318,75.318,0,0,0,2.2,11.8c2.4,8.133-3.416,11.694,1.992,17.979,2.37,2.69,16.9,5.228,27.186,1.841,1.336-5.559.709-16.788-.953-29.173a12.42,12.42,0,0,0-13.308-10.758Z" transform="translate(-325.514 -253.765)"/><path d="M385.848,304.08c2.678,12.565.662,15.905-4.519,19.408-7.273,1.127-10.189-1.876-10.189-1.876Z" transform="translate(-334.833 -265.898)"/><path class="l" d="M367.33,304.5l6.3.041a.581.581,0,0,0,.581-.552l.168-2.7a.517.517,0,0,0-.494-.581l-6.3-.041a.581.581,0,0,0-.581.552l-.168,2.7a.511.511,0,0,0,.494.581Z" transform="translate(-333.028 -264.469)"/><g class="k" transform="translate(29.263 24.286)"><path class="l" d="M361.67,287.269a.206.206,0,0,1-.07-.4c3.573-1.266,8.65-4.537,10.241-6.6a.209.209,0,1,1,.331.25c-1.824,2.364-7.1,5.565-10.456,6.744A.147.147,0,0,1,361.67,287.269Z" transform="translate(-360.04 -280.158)"/><path class="l" d="M364.182,288.216h-.064c-3.4-1.051-4.8-4.519-5.1-6.39a.206.206,0,1,1,.407-.064c.285,1.789,1.615,5.077,4.816,6.07a.2.2,0,0,1,.139.256.209.209,0,0,1-.2.128Z" transform="translate(-359.014 -280.756)"/></g><path class="n" d="M368.131,263.84c-.093,2.393.54,6.036,2.37,7.418a1.545,1.545,0,0,1-.1,2.55c-1.33.848-4.949,2.69-6.756,2.69a2.841,2.841,0,0,1-2.649-2.98,2.289,2.289,0,0,1,.755-1.2c1.22-1.11.325-2.254-.174-3.085Z" transform="translate(-330.57 -249.033)"/><path class="h" d="M366.595,269.27a3.771,3.771,0,0,0-.151-.43L362,271.332a3.718,3.718,0,0,1,.79,1.929C365.026,272.36,367,270.641,366.595,269.27Z" transform="translate(-331.003 -251.129)"/><path class="n" d="M323.13,391.255c.732-.767,5.49-2.225,5.49-2.225a93.465,93.465,0,0,1,3.073,10.909l-6.146.616S324.536,394.328,323.13,391.255Z" transform="translate(-314.712 -301.5)"/><path class="d" d="M346.683,335.6c-17.776.25-41.168-.7-35.656,15.5,2.358,6.936.378,4.578,3.137,12.971,1.162,3.619,1.592,4.682,2.451,7.192.941,2.242,6.6,1.824,8.714.947,2.509-1.336.383-4.943.093-6.971-1.429-9.916,1.191-8.795-1.923-15.3,5.67.825,23.747.25,26.141-9.5C349.588,340.445,352.864,336.558,346.683,335.6Z" transform="translate(-309.296 -279.108)"/><path class="o" d="M346.683,335.6c-17.776.25-41.168-.7-35.656,15.5,2.358,6.936.378,4.578,3.137,12.971,1.162,3.619,1.592,4.682,2.451,7.192.941,2.242,6.6,1.824,8.714.947,2.509-1.336.383-4.943.093-6.971-1.429-9.916,1.191-8.795-1.923-15.3,5.67.825,23.747.25,26.141-9.5C349.588,340.445,352.864,336.558,346.683,335.6Z" transform="translate(-309.296 -279.108)"/><path class="e" d="M323.693,397.973l.761,1.5a.459.459,0,0,0,.5.25,24.818,24.818,0,0,1,5.751-.441.465.465,0,0,0,.517-.436,17.548,17.548,0,0,0,0-1.836.471.471,0,0,0-.471-.459,34.057,34.057,0,0,0-6.762.749.476.476,0,0,0-.3.674Z" transform="translate(-314.927 -304.652)"/><path class="e" d="M328.485,411.152l-.68-4.322a.43.43,0,0,0-.453-.331l-6.3.029a2.324,2.324,0,0,0-1.435.383,14.791,14.791,0,0,1-6.814,2.9c-1.011.2-.581,2.2,1.789,2.19,3.921,0,3.758-.139,7.1-.151,2.858,0,3.573.128,5.844.151a.854.854,0,0,0,.953-.854Z" transform="translate(-310.169 -308.821)"/><path class="n" d="M365.47,249.9c0,4.357.221,6.889-1.888,9.387a5.825,5.825,0,0,1-10.108-1.743c-1.2-3.764-.987-10.259,3.253-12.518S365.476,245.553,365.47,249.9Z" transform="translate(-327.165 -240.813)"/><path class="e" d="M360.748,256.815c-.029.4.157.726.412.744s.494-.285.523-.68-.157-.732-.412-.749S360.777,256.42,360.748,256.815Z" transform="translate(-330.477 -245.802)"/><path class="e" d="M353.727,256.659c-.035.4.151.732.407.749s.494-.29.523-.685-.151-.726-.407-.744S353.756,256.264,353.727,256.659Z" transform="translate(-327.534 -245.739)"/><path class="e" d="M370.889,254.942c-2.144.883-2.533.1-2.173-2.388.227-1.592-1.528-1.859-.523-4.351.418-1.022,4.49-1.1,5.809.337S372.562,254.256,370.889,254.942Z" transform="translate(-333.467 -242.163)"/><path class="e" d="M362.76,245.525c-4.9.424-11.2.447-12.083-3.154-.581-2.44,2.358-6.094,6.889-2.539,3.154,2.463,6.216.941,7.755,1.47C366.722,241.784,369.423,244.944,362.76,245.525Z" transform="translate(-326.227 -238.351)"/><path class="e" d="M376.355,248.12a3.876,3.876,0,0,1-.668-.064.275.275,0,1,1,.1-.54,2.022,2.022,0,0,0,1.743-.314,1.11,1.11,0,0,0,.4-.883.267.267,0,0,1,.267-.279h0a.267.267,0,0,1,.273.267,1.615,1.615,0,0,1-.581,1.313A2.26,2.26,0,0,1,376.355,248.12Z" transform="translate(-336.645 -241.573)"/><path class="e" d="M361.164,263.851a3.4,3.4,0,0,1-.633.122.114.114,0,0,1-.023-.227,3.044,3.044,0,0,0,2.324-1.423.11.11,0,0,1,.151-.052.116.116,0,0,1,.046.151A3.1,3.1,0,0,1,361.164,263.851Z" transform="translate(-330.335 -248.371)"/><path class="e" d="M362.774,253.219a.192.192,0,0,1,.2.1,1.65,1.65,0,0,0,1.2.883.209.209,0,1,1-.035.412,2.062,2.062,0,0,1-1.522-1.1.2.2,0,0,1,.081-.279.145.145,0,0,1,.081-.023Z" transform="translate(-331.248 -244.581)"/><path class="e" d="M353.8,253.39a.18.18,0,0,1,.122.064.2.2,0,0,1,0,.29,2.033,2.033,0,0,1-1.795.581.2.2,0,0,1-.151-.244.209.209,0,0,1,.25-.157,1.6,1.6,0,0,0,1.412-.465A.227.227,0,0,1,353.8,253.39Z" transform="translate(-326.8 -244.654)"/><path class="n" d="M374.652,259.352a4.066,4.066,0,0,1-2.324,1.987c-1.348.418-2.062-.778-1.743-2.068.3-1.162,1.371-2.783,2.742-2.637a1.807,1.807,0,0,1,1.324,2.719Z" transform="translate(-334.569 -246.009)"/><path class="p" d="M356.155,257.39a12.5,12.5,0,0,1-1.365,3.166,2.056,2.056,0,0,0,1.714.151Z" transform="translate(-327.981 -246.33)"/><path class="n" d="M353.69,390.291c.651-.837,5.228-2.771,5.228-2.771a94.323,94.323,0,0,1,4.159,10.543l-6.053,1.232S355.4,393.207,353.69,390.291Z" transform="translate(-327.52 -300.868)"/><path class="d" d="M358.531,333.55c-17.468,1.191-30.979,1.226-23.271,16.5,3.3,6.535,2.167,5.135,5.757,13.21,1.545,3.485,2.056,4.5,3.172,6.9,1.162,2.138,6.75,1.162,8.714.07,2.364-1.586-.116-4.961-.581-6.971-2.422-9.719.325-8.26-3.381-14.447,5.722.3,25.246,2.219,24.723-9.254C373.681,339.586,370.817,333.55,358.531,333.55Z" transform="translate(-318.867 -278.249)"/><path class="o" d="M358.531,333.55c-17.468,1.191-30.979,1.226-23.271,16.5,3.3,6.535,2.167,5.135,5.757,13.21,1.545,3.485,2.056,4.5,3.172,6.9,1.162,2.138,6.75,1.162,8.714.07,2.364-1.586-.116-4.961-.581-6.971-2.422-9.719.325-8.26-3.381-14.447,5.722.3,25.246,2.219,24.723-9.254C373.681,339.586,370.817,333.55,358.531,333.55Z" transform="translate(-318.867 -278.249)"/><path class="e" d="M354.858,396.83l.906,1.417a.471.471,0,0,0,.523.2,25.121,25.121,0,0,1,5.681-1.022.465.465,0,0,0,.471-.488,16.561,16.561,0,0,0-.168-1.824.471.471,0,0,0-.511-.412,33.918,33.918,0,0,0-6.651,1.435.471.471,0,0,0-.25.7Z" transform="translate(-327.979 -303.875)"/><path class="e" d="M361.279,408.267l-1.261-4.374a.418.418,0,0,0-.494-.261l-6.233.941a2.323,2.323,0,0,0-1.365.581,10.4,10.4,0,0,1-6.146,3.485c-1.011.2-.581,2.2,1.789,2.19,3.915,0,3.747-.511,7.052-1,2.5-.366,3.561-.378,5.809-.581a.86.86,0,0,0,.848-.982Z" transform="translate(-323.991 -307.614)"/><path class="n" d="M346.234,331.548l1.818-.424a5.119,5.119,0,0,1,2.2,0l2.016.412a2.48,2.48,0,0,1,1.911,1.83h0a2.457,2.457,0,0,1-1.714,2.968,9.545,9.545,0,0,1-2.846.244l-2.37.2a1.656,1.656,0,0,1-1.743-1.232l-.5-1.963a1.65,1.65,0,0,1,1.226-2.039Z" transform="translate(-323.858 -277.182)"/><path class="e" d="M379.067,289.309c-.122-1.626-.267-3.183-.517-4.862a4.7,4.7,0,0,0-9.329,1.11v.07l.383,4.415c.134,1.487.244,2.98.343,4.45.046.738.087,1.47.116,2.2s.064,1.452.07,2.161v2.579c-.656.465-1.354.935-2.062,1.394-1.324.848-2.7,1.708-4.107,2.533s-2.829,1.667-4.258,2.5-2.9,1.673-4.287,2.527h-.041a2.016,2.016,0,0,0-.726,2.469c.4,1.237,1.191,2.126,2.457,1.847,1.714-.378,3.346-.836,5-1.33s3.27-1.046,4.891-1.65,3.241-1.243,4.851-2.01a35.271,35.271,0,0,0,4.92-2.7,3.8,3.8,0,0,0,1.568-2.324l.076-.349a37.572,37.572,0,0,0,.715-5.228c.134-1.685.157-3.323.151-4.961S379.183,290.919,379.067,289.309Z" transform="translate(-327.854 -255.99)"/></g><g transform="translate(20284.996 9935.762)"><path class="q" d="M252.912,291.77c-.25-1.6-3.195-2.277-3.195-2.277l-1.743-.715a1.284,1.284,0,0,0-1.592.517l-.842,1.354a1.3,1.3,0,0,0,.441,1.795l1.6.941a2.285,2.285,0,0,0,.929.308l1.336.139a2.98,2.98,0,0,0,2.858-1.423l.081-.128A.784.784,0,0,0,252.912,291.77Z" transform="translate(-221.82 -259.614)"/><path class="q" d="M285.661,272.2c-.639,2.788-1.348,7.9.552,9.829a20.825,20.825,0,0,0-9.777,5.007c-1.853-3.718,1.069-5.28,1.069-5.28,3.149-.645,3.143-2.968,2.666-5.158Z" transform="translate(-234.591 -252.708)"/><path class="b" d="M275.81,289.267c.97-2.963-1.365-3.555,2.631-4.775,3.125-.958,8.946-.7,10.27.36.738.581-.389,2.376-.389,2.376Z" transform="translate(-234.587 -257.61)"/><path class="q" d="M281.316,294.51l-.2.244-.168.209-.337.383c-.221.25-.453.482-.68.72-.459.459-.929.9-1.417,1.33a24.436,24.436,0,0,1-3.1,2.324c-.54.354-1.109.662-1.667.982s-1.162.581-1.743.842a24.573,24.573,0,0,1-3.677,1.278l-.163.041a1.882,1.882,0,0,1-.715.064,7.977,7.977,0,0,1-2.533-.68,17.35,17.35,0,0,1-1.859-.959,33.543,33.543,0,0,1-3.2-2.173q-1.5-1.162-2.9-2.387c-.924-.837-1.818-1.667-2.7-2.585a1.446,1.446,0,0,1,1.783-2.248h.029c1.017.581,2.045,1.226,3.073,1.807s2.056,1.162,3.079,1.743a33.781,33.781,0,0,0,3.05,1.516,13.115,13.115,0,0,0,1.441.552,3.368,3.368,0,0,0,.976.186l-.877.1a23.675,23.675,0,0,0,2.806-1.278,23.945,23.945,0,0,0,2.626-1.615,26.665,26.665,0,0,0,2.428-1.917c.389-.337.761-.685,1.121-1.046l.523-.54.244-.261.2-.215.157-.174a2.9,2.9,0,0,1,4.409,3.753Z" transform="translate(-225.384 -260.13)"/><path class="d" d="M262.858,294.549c0,1.888-3.09,6.152.5,8.795.314,3.822.738,7.587,1.557,13.866l19.17.581c-1.83-6.971-.256-11.577,2.666-23.643a4.845,4.845,0,0,0-4.066-5.948c-.761-.1-1.574-.192-2.4-.256a60.594,60.594,0,0,0-8.714-.279c-.941.058-1.917.145-2.846.25A6.576,6.576,0,0,0,262.858,294.549Z" transform="translate(-228.64 -259.169)"/><path class="o" d="M262.858,294.549c0,1.888-3.09,6.152.5,8.795.314,3.822.738,7.587,1.557,13.866l19.17.581c-1.83-6.971-.256-11.577,2.666-23.643a4.845,4.845,0,0,0-4.066-5.948c-.761-.1-1.574-.192-2.4-.256a60.594,60.594,0,0,0-8.714-.279c-.941.058-1.917.145-2.846.25A6.576,6.576,0,0,0,262.858,294.549Z" transform="translate(-228.64 -259.169)"/><path class="e" d="M275.4,264.177a.617.617,0,0,1-.511.581c-.227,0-.366-.349-.308-.7s.285-.581.511-.581S275.481,263.829,275.4,264.177Z" transform="translate(-234.066 -249.053)"/><path class="e" d="M275.106,263.272l-.8-.372S274.63,263.62,275.106,263.272Z" transform="translate(-233.958 -248.81)"/><path class="r" d="M274.552,265.25a9.429,9.429,0,0,1-1.592,2.022,1.5,1.5,0,0,0,1.2.43Z" transform="translate(-233.392 -249.795)"/><path class="e" d="M275.089,260.75a.186.186,0,0,1-.116-.1.2.2,0,0,1,.093-.273,2.039,2.039,0,0,1,1.888,0,.215.215,0,0,1,.07.285.2.2,0,0,1-.279.07,1.65,1.65,0,0,0-1.493.035A.2.2,0,0,1,275.089,260.75Z" transform="translate(-234.226 -247.654)"/><path class="q" d="M287,260.641c-.935,4.229-1.243,6.036-3.706,7.894-3.706,2.788-8.592.72-8.911-3.7-.29-3.979,1.29-10.224,5.664-11.269A5.785,5.785,0,0,1,287,260.641Z" transform="translate(-233.976 -244.826)"/><path class="e" d="M277.959,260.129c.8,3.944,4.647,7.192,7.552,7.07s7.186-5.629,7.064-9.753-3.009-7.767-7.72-7.552S274.119,250.376,277.959,260.129Z" transform="translate(-234.976 -243.355)"/><path class="e" d="M281.341,251.33c-3.578-3.7-8.539-1.057-9.231,2.846,2.085-.407,3.817,2.521,6.523,2.358C281.736,256.349,283.327,253.4,281.341,251.33Z" transform="translate(-233.036 -243.217)"/><path class="d" d="M295.089,252.124c.488-3.52,4.066-2.846,5.524-1.017s2.114,7.436-1.464,6.221S294.845,253.9,295.089,252.124Z" transform="translate(-242.649 -243.239)"/><path class="e" d="M300.738,248.784c-.639-4.014,2.26-12.745,9.382-9.387,5.89,2.777-2.207,17.566,5.89,20.25C312.937,264.335,302.393,259.183,300.738,248.784Z" transform="translate(-244.998 -238.644)"/><path class="e" d="M323.035,262.335h-.052c-4.316-1.714-4.438-8.481-4.537-13.942-.07-3.538-.122-6.593-1.278-7.331a1.51,1.51,0,0,0-1.475.041.134.134,0,0,1-.18-.07.145.145,0,0,1,.07-.186,1.8,1.8,0,0,1,1.743,0c1.278.819,1.336,3.944,1.4,7.552.1,5.362.221,12.03,4.363,13.674a.139.139,0,0,1,.081.18.145.145,0,0,1-.134.081Z" transform="translate(-251.221 -239.473)"/><path class="q" d="M279.666,266.849c-.581.953-.842,1.365-1.58,1.621a1.272,1.272,0,0,1-1.685-1.621c.3-.988,1.243-2.382,2.324-2.283a1.429,1.429,0,0,1,.941,2.283Z" transform="translate(-234.8 -249.506)"/><path class="l" d="M276.772,271.132l-.581,1.237-.581-1.237.581-1.232Z" transform="translate(-234.503 -251.744)"/><path class="q" d="M252.626,339.041s-16.155-.831-26.8,3.985c-3.311,1.5-3.822,4-4.409,7.587-2.446,15.051-6.25,30.207-6.25,30.207l3.625,1.075s13.518-19.861,11.664-30.637c25.089,5.321,33.024-3.015,33.024-3.015Z" transform="translate(-209.173 -280.697)"/><path class="e" d="M211.017,409.837c-.2-.064-.372.058-.552.157-1.313.709-1.307.749-4.839,1.11-1.162.122-1.313,1.2,1.557,2.1l7.029,2.207c.691.215,1.952-1.429.993-4.153a.517.517,0,0,0-.447-.337A10.4,10.4,0,0,1,211.017,409.837Z" transform="translate(-204.846 -310.384)"/><path class="q" d="M275.569,341.013s-12.85-2.144-23.48,2.626a8.167,8.167,0,0,0-4.758,8.6c2.161,15.1,7.552,32.838,7.552,32.838l3.782-.058s-.279-21.087-2.132-31.862a26.035,26.035,0,0,0,7.668.627c6.971-.331,12.664-2.213,11.8-9.132Z" transform="translate(-222.618 -281.346)"/><path class="e" d="M256.186,415.931c-.209,0-.331.163-.476.314-1.034,1.075-1.022,1.1-4.287,2.515-1.092.471-.889,1.534,2.12,1.534h7.366c.72,0,1.435-1.952-.3-4.258a.511.511,0,0,0-.529-.186A10.555,10.555,0,0,1,256.186,415.931Z" transform="translate(-224.112 -312.905)"/><path class="e" d="M254.273,338.248s-10.282-.064-18.043,3.125c0,10.938,4.537,15.318,4.537,15.318s42.243,7.424,32.676-17.839C268.487,337.341,254.383,337.8,254.273,338.248Z" transform="translate(-217.999 -280.206)"/><path class="q" d="M243.292,339.592c-.581,1.516-3.6,1.545-3.6,1.545l-1.841.331a1.3,1.3,0,0,1-1.452-.842l-.529-1.5a1.3,1.3,0,0,1,.813-1.661l1.743-.581a2.4,2.4,0,0,1,.976-.1l1.336.151a3,3,0,0,1,2.492,1.992l.046.145A.773.773,0,0,1,243.292,339.592Z" transform="translate(-217.817 -279.768)"/><path class="q" d="M262.272,296.741c-.221,1.435-.505,2.788-.8,4.171s-.622,2.748-.993,4.113a58.388,58.388,0,0,1-2.777,8.167l-.076.168a1.742,1.742,0,0,1-.256.424,20.781,20.781,0,0,1-2.533,2.527c-.854.749-1.743,1.412-2.637,2.056s-1.812,1.237-2.742,1.807-1.865,1.1-2.864,1.6a1.452,1.452,0,0,1-1.667-2.324h0l2.231-2.19c.744-.732,1.481-1.458,2.2-2.2s1.417-1.47,2.074-2.2a22.08,22.08,0,0,0,1.743-2.184l-.331.581c.412-1.2.767-2.457,1.115-3.729s.645-2.573.947-3.88.581-2.62.854-3.939.534-2.655.79-3.933v-.035a2.9,2.9,0,0,1,5.716,1.011Z" transform="translate(-221.473 -261.617)"/><path class="d" d="M294.611,293.512c-1.266,3.166-4.647,5.49-9.428,6.28-2.1-.523-4.972-7.552-4.972-7.552S293.995,284.816,294.611,293.512Z" transform="translate(-236.431 -259.869)"/><path class="o" d="M294.611,293.512c-1.266,3.166-4.647,5.49-9.428,6.28-2.1-.523-4.972-7.552-4.972-7.552S293.995,284.816,294.611,293.512Z" transform="translate(-236.431 -259.869)"/><path class="d" d="M264.906,289.334c-2.236,1.377-4.688,4.374-5.036,9.637.866,1.981,9.562,3.642,9.562,3.642S272.667,285.6,264.906,289.334Z" transform="translate(-227.906 -259.664)"/><path class="o" d="M264.906,289.334c-2.236,1.377-4.688,4.374-5.036,9.637.866,1.981,9.562,3.642,9.562,3.642S272.667,285.6,264.906,289.334Z" transform="translate(-227.906 -259.664)"/><rect class="d" width="44.073" height="4.67" rx="2.335" transform="translate(55.984 79.796) rotate(180)"/><path class="d" d="M266.85,332.549h25.676a3.729,3.729,0,0,0,3.555-3.108L300,302.191a2.626,2.626,0,0,0-2.655-3.1H271.666a3.712,3.712,0,0,0-3.549,3.1l-3.927,27.25a2.637,2.637,0,0,0,2.66,3.108Z" transform="translate(-229.699 -263.976)"/><path class="f" d="M268.143,302.883l-3.927,27.25a2.835,2.835,0,0,0,.331,1.818,1.406,1.406,0,0,0,2.591-.529l4.188-29.086a1.406,1.406,0,0,0-2.51-1.046A3.485,3.485,0,0,0,268.143,302.883Z" transform="translate(-229.714 -264.668)"/><path class="e" d="M307.54,344.435h1.313l5-32.635h-1.313Z" transform="translate(-247.885 -269.304)"/><path class="e" d="M273.1,344.435h1.307l5-32.635H278.1Z" transform="translate(-233.451 -269.304)"/><rect class="d" width="22.702" height="4.67" rx="2.335" transform="translate(63.756 79.796) rotate(180)"/><rect class="f" width="29.144" height="4.67" rx="2.335" transform="translate(11.911 75.131)"/><path class="e" d="M262.65,404.12h1.307l5-28.11h-1.307Z" transform="translate(-229.072 -296.214)"/><path class="e" d="M223.52,404.12h1.307l5-28.11h-1.307Z" transform="translate(-212.672 -296.214)"/><path class="e" d="M273.244,404.12h-1.313l-5-28.11h1.313Z" transform="translate(-230.865 -296.214)"/><path class="e" d="M312.374,404.12h-1.313l-5-28.11h1.313Z" transform="translate(-247.265 -296.214)"/></g></g></svg>