<svg id="auto_awesome_24dp_5F6368" xmlns="http://www.w3.org/2000/svg" width="24" height="24" viewBox="0 0 24 24">
  <g id="Group_10519" data-name="Group 10519">
    <rect id="Rectangle_18301" data-name="Rectangle 18301" width="24" height="24" fill="none"/>
  </g>
  <g id="Group_10521" data-name="Group 10521">
    <g id="Group_10520" data-name="Group 10520">
      <path id="Path_47914" data-name="Path 47914" d="M19,9l1.25-2.75L23,5,20.25,3.75,19,1,17.75,3.75,15,5l2.75,1.25Z" fill="#5f6368"/>
      <path id="Path_47915" data-name="Path 47915" d="M19,15l-1.25,2.75L15,19l2.75,1.25L19,23l1.25-2.75L23,19l-2.75-1.25Z" fill="#5f6368"/>
      <path id="Path_47916" data-name="Path 47916" d="M11.5,9.5,9,4,6.5,9.5,1,12l5.5,2.5L9,20l2.5-5.5L17,12ZM9.99,12.99,9,15.17l-.99-2.18L5.83,12l2.18-.99L9,8.83l.99,2.18,2.18.99Z" fill="#5f6368"/>
    </g>
  </g>
</svg>
