<svg xmlns="http://www.w3.org/2000/svg" width="24" height="24" viewBox="0 0 24 24"><defs><style>.a{fill:none;}.b{fill:#423f3f;}</style></defs><path class="a" d="M0,0H24V24H0Z"/><path class="b" d="M8,14a1,1,0,1,1,1,1A1,1,0,0,1,8,14Zm4,1a1,1,0,1,0-1-1A1,1,0,0,0,12,15Zm3,0a1,1,0,1,0-1-1A1,1,0,0,0,15,15ZM12,7.5a3.5,3.5,0,0,0-3.46,3h6.93A3.52,3.52,0,0,0,12,7.5M12,6a5,5,0,0,1,5,5v1H7V11A5,5,0,0,1,12,6ZM9,18a1,1,0,1,0-1-1A1,1,0,0,0,9,18Zm3,0a1,1,0,1,0-1-1A1,1,0,0,0,12,18Zm3,0a1,1,0,1,0-1-1A1,1,0,0,0,15,18ZM20,4H4V20H20V4m0-2a2.006,2.006,0,0,1,2,2V20a2.006,2.006,0,0,1-2,2H4a2.006,2.006,0,0,1-2-2V4A2.006,2.006,0,0,1,4,2Z"/></svg>