<svg xmlns="http://www.w3.org/2000/svg" width="24" height="24" viewBox="0 0 24 24"><defs><style>.a{fill:none;}.b{fill:#423f3f;}</style></defs><path class="a" d="M0,0H24V24H0Z"/><path class="b" d="M20,8V6a3.009,3.009,0,0,0-3-3H7A3.009,3.009,0,0,0,4,6V8a3.009,3.009,0,0,0-3,3v5a3.009,3.009,0,0,0,3,3v1a1,1,0,0,0,2,0V19H18v1a1,1,0,0,0,2,0V19a3.009,3.009,0,0,0,3-3V11A3.009,3.009,0,0,0,20,8ZM6,6A1,1,0,0,1,7,5H17a1,1,0,0,1,1,1V8.78A2.986,2.986,0,0,0,17,11v2H7V11A2.986,2.986,0,0,0,6,8.78ZM21,16a1,1,0,0,1-1,1H4a1,1,0,0,1-1-1V11a1,1,0,0,1,2,0v4H19V11a1,1,0,0,1,2,0Z"/></svg>