<svg id="drive_eta_24dp_5F6368" xmlns="http://www.w3.org/2000/svg" width="24" height="24" viewBox="0 0 24 24">
  <path id="Path_47910" data-name="Path 47910" d="M0,0H24V24H0Z" fill="none"/>
  <path id="Path_47911" data-name="Path 47911" d="M18.92,5.01A1.494,1.494,0,0,0,17.5,4H6.5A1.5,1.5,0,0,0,5.08,5.01L3,11v8a1,1,0,0,0,1,1H5a1,1,0,0,0,1-1V18H18v1a1,1,0,0,0,1,1h1a1,1,0,0,0,1-1V11ZM6.85,6H17.14l1.04,3H5.81ZM19,16H5V11.34L5.12,11H18.89l.11.34Z" fill="#5f6368"/>
  <circle id="Ellipse_3674" data-name="Ellipse 3674" cx="1.5" cy="1.5" r="1.5" transform="translate(6 12)" fill="#5f6368"/>
  <circle id="Ellipse_3675" data-name="Ellipse 3675" cx="1.5" cy="1.5" r="1.5" transform="translate(15 12)" fill="#5f6368"/>
</svg>
