<svg id="highlight_alt_24dp_5F6368" xmlns="http://www.w3.org/2000/svg" width="24" height="24" viewBox="0 0 24 24">
  <rect id="Rectangle_18310" data-name="Rectangle 18310" width="24" height="24" fill="none"/>
  <path id="Path_47930" data-name="Path 47930" d="M17,5H15V3h2ZM15,15v6l2.29-2.29L19.59,21,21,19.59,18.71,17.3,21,15Zm4-6h2V7H19Zm0,4h2V11H19Zm-8,8h2V19H11ZM7,5H9V3H7ZM3,17H5V15H3Zm2,4V19H3A2.006,2.006,0,0,0,5,21ZM19,3V5h2A2.006,2.006,0,0,0,19,3ZM11,5h2V3H11ZM3,9H5V7H3ZM7,21H9V19H7ZM3,13H5V11H3ZM3,5H5V3A2.006,2.006,0,0,0,3,5Z" fill="#5f6368"/>
</svg>
