<svg id="insert_photo-24px" xmlns="http://www.w3.org/2000/svg" width="47.988" height="47.988" viewBox="0 0 47.988 47.988">
  <path id="Path_38915" data-name="Path 38915" d="M0,0H47.988V47.988H0Z" fill="none"/>
  <path id="Path_38916" data-name="Path 38916" d="M34.992,7V34.992H7V7H34.992m0-4H7A4.011,4.011,0,0,0,3,7V34.992a4.011,4.011,0,0,0,4,4H34.992a4.011,4.011,0,0,0,4-4V7A4.011,4.011,0,0,0,34.992,3ZM25.275,20.716l-6,7.738L15,23.275,9,30.993H32.993L25.275,20.716Z" transform="translate(2.999 2.999)" fill="#dadce0"/>
</svg>
