<svg xmlns="http://www.w3.org/2000/svg" width="395.03" height="340.88" viewBox="0 0 395.03 340.88">
  <g id="Group_8510" data-name="Group 8510" transform="translate(-457.86 -304.12)">
    <rect id="Rectangle_12653" data-name="Rectangle 12653" width="34.4" height="0.25" transform="translate(752.26 610.431)" fill="#e0e0e0"/>
    <rect id="Rectangle_12654" data-name="Rectangle 12654" width="19.36" height="0.25" transform="translate(500.68 610.551)" fill="#e0e0e0"/>
    <rect id="Rectangle_12655" data-name="Rectangle 12655" width="39.24" height="0.25" transform="translate(620.76 609.971)" fill="#e0e0e0"/>
    <rect id="Rectangle_12656" data-name="Rectangle 12656" width="17.54" height="0.25" transform="translate(602.22 606.41)" fill="#e0e0e0"/>
    <circle id="Ellipse_2993" data-name="Ellipse 2993" cx="20.56" cy="20.56" r="20.56" transform="translate(736.882 513.807) rotate(-76.05)" fill="#f0f0f0"/>
    <circle id="Ellipse_2994" data-name="Ellipse 2994" cx="12.17" cy="12.17" r="12.17" transform="translate(664.271 496.688) rotate(-80.75)" fill="#f0f0f0"/>
    <circle id="Ellipse_2995" data-name="Ellipse 2995" cx="8.54" cy="8.54" r="8.54" transform="translate(682.94 471.801)" fill="#f0f0f0"/>
    <path id="Path_39321" data-name="Path 39321" d="M192.26,112.14c5.07-14.87,1-25.46-11.37-25.46-7.78,0-17.43,4.17-26.83,10.95-1.06-3.87-4.05-6.18-8.86-6.18-8.47,0-20.14,7.16-29.29,17.26a14,14,0,0,0-9.54-3.85c-8.11-.46-17.92,3.66-26.45,10.35a4.61,4.61,0,0,0-3.76-1.93c-4.67-.26-11,3.9-14.13,9.28-.19.33-.36.66-.54,1H194.72C195.12,118.86,194.29,114.94,192.26,112.14Z" transform="translate(409 217.44)" fill="#f0f0f0"/>
    <path id="Path_39322" data-name="Path 39322" d="M192.67,202.43c2.48-7.26.51-12.43-5.55-12.43-3.81,0-8.52,2-13.11,5.35a4.06,4.06,0,0,0-4.33-3c-4.13,0-9.83,3.5-14.31,8.44a6.79,6.79,0,0,0-4.66-1.88c-4-.23-8.75,1.78-12.92,5.05A2.25,2.25,0,0,0,136,203c-2.28-.13-5.37,1.9-6.9,4.53l-.27.48h65.08a8.17,8.17,0,0,0-1.24-5.58Z" transform="translate(409 217.44)" fill="#f0f0f0"/>
    <path id="Path_39323" data-name="Path 39323" d="M342.77,147.49a11.311,11.311,0,0,0-1.55-.11c.48-7.25-2.29-11.89-8.22-11.89-4.27,0-9.52,2.42-14.86,6.51,1.53-14.08-3.37-23.23-14.47-23.23-8.94,0-20.27,6-31.46,15.66-1-5.52-4.28-8.84-9.82-8.84-9.73,0-23.56,10.24-34.65,24.68h0A14,14,0,0,0,217,144.74c-9.26-.65-20.77,5.23-31,14.81a4.73,4.73,0,0,0-4.21-2.75c-5.07-.36-12,4.93-16.11,12H350.92C355.27,158.08,351.81,148.7,342.77,147.49Z" transform="translate(409 217.44)" fill="#f0f0f0"/>
    <g id="freepik--Shadow--inject-5" transform="translate(409 217.44)">
      <ellipse id="Ellipse_2996" data-name="Ellipse 2996" cx="193.89" cy="11.32" rx="193.89" ry="11.32" transform="translate(56.11 404.92)" fill="#f5f5f5"/>
    </g>
    <g id="freepik--Mail--inject-5" transform="translate(409 217.44)">
      <path id="Path_39324" data-name="Path 39324" d="M48.86,150.56l227.97,32.82,30.59,30.87Z" fill="#18a0a8"/>
      <path id="Path_39325" data-name="Path 39325" d="M48.86,150.56l227.97,32.82,30.59,30.87Z" fill="#fff" opacity="0.6"/>
      <path id="Path_39326" data-name="Path 39326" d="M48.86,150.56l227.97,32.82-10.58,44.64Z" fill="#18a0a8"/>
      <path id="Path_39327" data-name="Path 39327" d="M48.86,150.56l227.97,32.82-10.58,44.64Z" opacity="0.2"/>
      <path id="Path_39328" data-name="Path 39328" d="M261.57,98.88l13.23,62a6.25,6.25,0,0,1-4.8,7.41l-118.08,25.2a6.26,6.26,0,0,1-7.41-4.8l-13.24-62a6.26,6.26,0,0,1,4.81-7.41l118.08-25.2a6.26,6.26,0,0,1,7.41,4.81Z" fill="#18a0a8"/>
      <path id="Path_39329" data-name="Path 39329" d="M261.57,98.88l13.23,62a6.25,6.25,0,0,1-4.8,7.41l-118.08,25.2a6.26,6.26,0,0,1-7.41-4.8l-13.24-62a6.26,6.26,0,0,1,4.81-7.41l118.08-25.2a6.26,6.26,0,0,1,7.41,4.81Z" opacity="0.4"/>
      <path id="Path_39330" data-name="Path 39330" d="M258.66,94.82l-39.45,48.43a25.43,25.43,0,0,1-31.15,6.65l-55.79-28.1a6.22,6.22,0,0,1,3.81-2.53l118.08-25.2a6.23,6.23,0,0,1,4.5.75Z" fill="#18a0a8"/>
      <path id="Path_39331" data-name="Path 39331" d="M48.86,150.56l188.03,44.69,29.36,32.77Z" fill="#18a0a8"/>
      <path id="Path_39332" data-name="Path 39332" d="M48.86,150.56l188.03,44.69,29.36,32.77Z" fill="#fff" opacity="0.6"/>
      <rect id="Rectangle_12658" data-name="Rectangle 12658" width="1" height="24.25" transform="matrix(0.505, -0.863, 0.863, 0.505, 116.944, 194.497)" fill="#18a0a8"/>
      <rect id="Rectangle_12659" data-name="Rectangle 12659" width="1" height="8.72" transform="matrix(0.505, -0.863, 0.863, 0.505, 147.107, 212.158)" fill="#18a0a8"/>
      <path id="Path_39333" data-name="Path 39333" d="M48.86,150.56l188.03,44.69L200.34,239.3Z" fill="#18a0a8"/>
      <path id="Path_39334" data-name="Path 39334" d="M300.36,255.26a2,2,0,0,1-.74-.14L269,243a2,2,0,1,1,1.47-3.72L301.1,251.4a2,2,0,0,1-.74,3.86Z" fill="#18a0a8"/>
      <path id="Path_39335" data-name="Path 39335" d="M300.36,255.26a2,2,0,0,1-.74-.14L269,243a2,2,0,1,1,1.47-3.72L301.1,251.4a2,2,0,0,1-.74,3.86Z" opacity="0.3"/>
      <path id="Path_39336" data-name="Path 39336" d="M298.55,237.7a1.91,1.91,0,0,1-.73-.15L281.37,231a2,2,0,1,1,1.47-3.72l16.45,6.52a2.025,2.025,0,0,1-.74,3.9Z" fill="#18a0a8"/>
      <path id="Path_39337" data-name="Path 39337" d="M298.55,237.7a1.91,1.91,0,0,1-.73-.15L281.37,231a2,2,0,1,1,1.47-3.72l16.45,6.52a2.025,2.025,0,0,1-.74,3.9Z" fill="#fff" opacity="0.5"/>
      <path id="Path_39338" data-name="Path 39338" d="M264.16,255a2.1,2.1,0,0,1-.73-.14L233.56,243a2,2,0,1,1,1.47-3.72L264.9,251.1a2,2,0,0,1-.74,3.86Z" fill="#18a0a8"/>
      <path id="Path_39339" data-name="Path 39339" d="M264.16,255a2.1,2.1,0,0,1-.73-.14L233.56,243a2,2,0,1,1,1.47-3.72L264.9,251.1a2,2,0,0,1-.74,3.86Z" opacity="0.3"/>
    </g>
    <g id="freepik--Character--inject-5" transform="translate(409 217.44)">
      <path id="Path_39340" data-name="Path 39340" d="M372.3,164.82c2.65,5.17,5.08,10.35,7.39,15.65s4.46,10.67,6.34,16.3l.68,2.13c.12.38.29,1,.39,1.44s.19.94.24,1.36a35.311,35.311,0,0,1,.35,4.87,87.285,87.285,0,0,1-.42,9,144.158,144.158,0,0,1-2.72,17.22l-5.49-.61c-.07-5.63-.12-11.32-.32-16.87-.09-2.76-.25-5.53-.53-8.13a30.521,30.521,0,0,0-.6-3.63c-.05-.28-.13-.49-.19-.72s-.12-.31-.22-.61l-.76-1.89c-2.09-5.06-4.44-10.16-6.84-15.24l-7.26-15.24Z" fill="#e4897b"/>
      <path id="Path_39341" data-name="Path 39341" d="M379.14,230.42l-2.56,4.79,8.18,2.28s1.56-3.85-.3-6.89Z" fill="#e4897b"/>
      <path id="Path_39342" data-name="Path 39342" d="M373.45,242.11l7.52.6,3.79-5.22-8.18-2.28Z" fill="#e4897b"/>
      <path id="Path_39343" data-name="Path 39343" d="M337.87,130.26c-.11.59-.52,1-.9.92s-.59-.61-.47-1.19.52-1,.9-.92S338,129.68,337.87,130.26Z" fill="#263238"/>
      <path id="Path_39344" data-name="Path 39344" d="M337.41,131.26a21.341,21.341,0,0,1-3.79,4.41,3.44,3.44,0,0,0,2.67,1.08Z" fill="#de5753"/>
      <path id="Path_39345" data-name="Path 39345" d="M340.65,127.47a.36.36,0,0,1-.25-.11,2.78,2.78,0,0,0-2.33-.94.35.35,0,0,1-.12-.68,3.4,3.4,0,0,1,3,1.15.35.35,0,0,1,0,.49.36.36,0,0,1-.3.09Z" fill="#263238"/>
      <path id="Path_39346" data-name="Path 39346" d="M354.41,138.43c-1.05,5.38-2.1,15.22,1.66,18.81,0,0-1.47,5.45-11.46,5.45-11,0-5.24-5.45-5.24-5.45,6-1.43,5.83-5.88,4.79-10.05Z" fill="#e4897b"/>
      <path id="Path_39347" data-name="Path 39347" d="M357.58,160.63c.79-2.63,1.66-5.64-.14-6.59-2-1-12.87-2.1-16.62-.15s-2.68,7.3-2.68,7.3Z" fill="#263238"/>
      <path id="Path_39348" data-name="Path 39348" d="M380.64,410a2.35,2.35,0,0,1-1.76-.48.71.71,0,0,1,0-.83.83.83,0,0,1,.55-.41c1.08-.24,3.1,1.14,3.19,1.2a.2.2,0,0,1,.07.18.16.16,0,0,1-.13.13,9.343,9.343,0,0,1-1.92.21Zm-.92-1.4h-.21a.47.47,0,0,0-.32.24c-.16.28-.06.4,0,.44.31.42,1.81.42,2.91.24a5.781,5.781,0,0,0-2.38-.9Z" fill="#18a0a8"/>
      <path id="Path_39349" data-name="Path 39349" d="M382.52,409.82h-.08c-.76-.42-2.23-2-2.08-2.84a.57.57,0,0,1,.56-.46,1,1,0,0,1,.74.22c.85.7,1,2.82,1,2.91a.16.16,0,0,1-.08.16A.14.14,0,0,1,382.52,409.82Zm-1.48-3H381c-.23,0-.25.14-.26.18-.09.49.85,1.7,1.6,2.27a4.19,4.19,0,0,0-.86-2.3.64.64,0,0,0-.48-.13Z" fill="#18a0a8"/>
      <path id="Path_39350" data-name="Path 39350" d="M336.53,410c-.94,0-1.85-.13-2.16-.55a.66.66,0,0,1,0-.76.88.88,0,0,1,.56-.41c1.21-.33,3.79,1.13,3.9,1.19a.18.18,0,0,1,.08.18.17.17,0,0,1-.14.14,12.17,12.17,0,0,1-2.24.21Zm-1.17-1.42a1.151,1.151,0,0,0-.33,0,.51.51,0,0,0-.34.24c-.13.22-.08.32,0,.38.33.46,2.19.49,3.57.3a7.87,7.87,0,0,0-2.9-.9Z" fill="#18a0a8"/>
      <path id="Path_39351" data-name="Path 39351" d="M338.75,409.82h-.07c-.89-.39-2.64-2-2.51-2.81,0-.2.17-.44.65-.49a1.22,1.22,0,0,1,1,.3c.94.76,1.13,2.74,1.14,2.83a.153.153,0,0,1-.21.17Zm-1.79-3h-.11c-.31,0-.33.16-.34.2-.08.5,1.12,1.75,2,2.29a4,4,0,0,0-1-2.26.87.87,0,0,0-.51-.21Z" fill="#18a0a8"/>
      <path id="Path_39352" data-name="Path 39352" d="M346.83,409.64h-7.35l-.73-17.01h7.35Z" fill="#e4897b"/>
      <path id="Path_39353" data-name="Path 39353" d="M390.94,409.64h-7.35l-3.69-17.01h7.34Z" fill="#e4897b"/>
      <path id="Path_39354" data-name="Path 39354" d="M383.07,408.79h8.25a.65.65,0,0,1,.63.51l1.45,6.53a1.08,1.08,0,0,1-1.08,1.3c-2.88-.05-4.28-.22-7.91-.22-2.23,0-6.83.24-9.92.24s-3.48-3-2.22-3.33c5.66-1.24,7.79-2.95,9.6-4.57A1.78,1.78,0,0,1,383.07,408.79Z" fill="#263238"/>
      <path id="Path_39355" data-name="Path 39355" d="M339.53,408.79h8a.65.65,0,0,1,.63.51l1.45,6.53a1.07,1.07,0,0,1-1.06,1.3c-2.89-.05-7.07-.22-10.71-.22-4.25,0-7.93.24-12.92.24-3,0-3.85-3-2.59-3.33,5.75-1.26,10.44-1.39,15.41-4.45a3.36,3.36,0,0,1,1.79-.58Z" fill="#263238"/>
      <path id="Path_39356" data-name="Path 39356" d="M336,170.14a169.177,169.177,0,0,1-18.31-2.43c-3-.58-6.06-1.23-9.1-2.05a73.134,73.134,0,0,1-9.16-3c-.77-.32-1.55-.67-2.32-1a20.468,20.468,0,0,1-2.5-1.46c-1.44-.95-2.68-1.94-3.91-2.92-2.45-2-4.72-4-7-6.05-4.47-4.14-8.71-8.42-12.8-12.92l3.68-4.11,14.51,10.43c2.39,1.72,4.81,3.41,7.19,5,1.18.79,2.39,1.53,3.5,2.16a12.156,12.156,0,0,0,1.44.7c.59.23,1.19.46,1.82.68a108,108,0,0,0,16.53,3.7c5.71.9,11.61,1.64,17.31,2.24Z" fill="#e4897b"/>
      <path id="Path_39357" data-name="Path 39357" d="M369.22,158.9c6.89,1.58,13.85,21.71,13.85,21.71L368.9,190.78s-4-9.38-7.86-17.58C357,164.61,362.18,157.29,369.22,158.9Z" fill="#18a0a8"/>
      <path id="Path_39358" data-name="Path 39358" d="M369.22,158.9c6.89,1.58,13.85,21.71,13.85,21.71L368.9,190.78s-4-9.38-7.86-17.58C357,164.61,362.18,157.29,369.22,158.9Z" opacity="0.4"/>
      <path id="Path_39359" data-name="Path 39359" d="M365.25,169.9l-2.81,6.29c2.91,6.28,5.57,12.5,6.28,14.16C368.62,182.92,367.21,173.7,365.25,169.9Z" fill="#18a0a8"/>
      <path id="Path_39360" data-name="Path 39360" d="M365.25,169.9l-2.81,6.29c2.91,6.28,5.57,12.5,6.28,14.16C368.62,182.92,367.21,173.7,365.25,169.9Z" opacity="0.6"/>
      <path id="Path_39361" data-name="Path 39361" d="M328.07,159.28s-7.82,8.83-.44,63.5h39.29c.28-6-3.51-35.46,2.3-63.88a102.558,102.558,0,0,0-13.15-1.66,145.272,145.272,0,0,0-16.7,0,73.5,73.5,0,0,0-11.3,2.04Z" fill="#18a0a8"/>
      <path id="Path_39362" data-name="Path 39362" d="M328.07,159.28s-7.82,8.83-.44,63.5h39.29c.28-6-3.51-35.46,2.3-63.88a102.558,102.558,0,0,0-13.15-1.66,145.272,145.272,0,0,0-16.7,0,73.5,73.5,0,0,0-11.3,2.04Z" opacity="0.4"/>
      <path id="Path_39363" data-name="Path 39363" d="M325.16,169.9c-.26,2.07-.46,4.52-.59,7.41a41.079,41.079,0,0,0,10.94-5.14Z" fill="#18a0a8"/>
      <path id="Path_39364" data-name="Path 39364" d="M325.16,169.9c-.26,2.07-.46,4.52-.59,7.41a41.079,41.079,0,0,0,10.94-5.14Z" opacity="0.6"/>
      <path id="Path_39365" data-name="Path 39365" d="M342,171c-5.26,4.66-25.34,4.19-25.34,4.19L316,155.75a148.167,148.167,0,0,0,20.47,1.48C347.66,157,347.74,165.86,342,171Z" fill="#18a0a8"/>
      <path id="Path_39366" data-name="Path 39366" d="M342,171c-5.26,4.66-25.34,4.19-25.34,4.19L316,155.75a148.167,148.167,0,0,0,20.47,1.48C347.66,157,347.74,165.86,342,171Z" opacity="0.4"/>
      <path id="Path_39367" data-name="Path 39367" d="M274.77,134.24l-5-5.89-5.39,6s3.32,5.58,8.59,4.7Z" fill="#e4897b"/>
      <path id="Path_39368" data-name="Path 39368" d="M262.61,121.48l-1.94,7.69,3.67,5.14,5.39-5.96Z" fill="#e4897b"/>
      <path id="Path_39369" data-name="Path 39369" d="M338.75,392.64l.38,8.76h7.35l-.38-8.76Z" fill="#ce6f64"/>
      <path id="Path_39370" data-name="Path 39370" d="M387.25,392.64H379.9l1.9,8.76h7.35Z" fill="#ce6f64"/>
      <path id="Path_39371" data-name="Path 39371" d="M343.17,123c-6.59-3-8.67-16.33,10.29-13,0,0-2.86,3.16,2.94,5.16S357.35,129.51,343.17,123Z" fill="#263238"/>
      <path id="Path_39372" data-name="Path 39372" d="M357.49,133c-1.89,7-2.63,11.26-7,14.19-6.54,4.4-14.67-.65-14.93-8.12-.23-6.71,2.9-17.1,10.45-18.52A9.94,9.94,0,0,1,357.49,133Z" fill="#e4897b"/>
      <path id="Path_39373" data-name="Path 39373" d="M353.2,113.5c4.49,2.5,10.57,4,10,7.56-.75,4.35,3.67,1.63,2.64,8.1-.67,4.23-8.47,17.05-14,16.43-8.26-1-7.21-13.56-7.24-20.18C344.58,121.5,344.4,108.57,353.2,113.5Z" fill="#263238"/>
      <path id="Path_39374" data-name="Path 39374" d="M343.61,119.11c-2,.47-4.65,12,3.1,13.06C355.62,133.38,343.61,119.11,343.61,119.11Z" fill="#263238"/>
      <path id="Path_39375" data-name="Path 39375" d="M343.81,123.2c-2.45.22-8-2.73-7.32-7.17C336.49,116,340,121.22,343.81,123.2Z" fill="#263238"/>
      <path id="Path_39376" data-name="Path 39376" d="M347.45,133.09a8.21,8.21,0,0,1-3.63,3.85c-2.11,1.1-3.3-.5-2.82-2.62.43-1.9,2.05-4.77,4.22-5S348.32,131.09,347.45,133.09Z" fill="#e4897b"/>
      <path id="Path_39377" data-name="Path 39377" d="M358.45,125a9.85,9.85,0,0,0,5.78-7.33S367.53,126.84,358.45,125Z" fill="#263238"/>
      <path id="Path_39378" data-name="Path 39378" d="M366.79,124.85a5.07,5.07,0,0,0-4.78-.47S365.09,120.39,366.79,124.85Z" fill="#263238"/>
      <path id="Path_39379" data-name="Path 39379" d="M341.57,222.78s8.34,56.14,12.91,77.17c5,23,23.9,99.76,23.9,99.76h13.45S379.38,324.84,376.52,302c-3.1-24.75-9.6-79.26-9.6-79.26Z" fill="#18a0a8"/>
      <path id="Path_39380" data-name="Path 39380" d="M341.57,222.78s8.34,56.14,12.91,77.17c5,23,23.9,99.76,23.9,99.76h13.45S379.38,324.84,376.52,302c-3.1-24.75-9.6-79.26-9.6-79.26Z" fill="#fff" opacity="0.5"/>
      <path id="Path_39381" data-name="Path 39381" d="M376.23,394.75c-.06,0,1.39,5.17,1.39,5.17h15.14l-.28-4.61Z" fill="#18a0a8"/>
      <path id="Path_39382" data-name="Path 39382" d="M376.23,394.75c-.06,0,1.39,5.17,1.39,5.17h15.14l-.28-4.61Z" opacity="0.1"/>
      <path id="Path_39383" data-name="Path 39383" d="M346.84,242.78c9.64,1.89,8.62,37.84,7.46,56.33-2.78-13.07-6.85-38.22-9.63-56.07a3.29,3.29,0,0,1,2.17-.26Z" fill="#18a0a8"/>
      <path id="Path_39384" data-name="Path 39384" d="M346.84,242.78c9.64,1.89,8.62,37.84,7.46,56.33-2.78-13.07-6.85-38.22-9.63-56.07a3.29,3.29,0,0,1,2.17-.26Z" fill="#fff" opacity="0.4"/>
      <path id="Path_39385" data-name="Path 39385" d="M327.63,222.78s-1,54.92-.21,77.33c.83,23.3,9,99.6,9,99.6h12.44s.46-74.94,1-97.82c.61-24.95,3.62-79.11,3.62-79.11Z" fill="#18a0a8"/>
      <path id="Path_39386" data-name="Path 39386" d="M327.63,222.78s-1,54.92-.21,77.33c.83,23.3,9,99.6,9,99.6h12.44s.46-74.94,1-97.82c.61-24.95,3.62-79.11,3.62-79.11Z" fill="#fff" opacity="0.5"/>
      <path id="Path_39387" data-name="Path 39387" d="M339,390.77a.12.12,0,0,1-.12-.11c-2.2-21.12-7.37-72.22-8-90.55-.67-18.71-.06-60.69.14-73.11a.12.12,0,0,1,.12-.12h0a.13.13,0,0,1,.13.12c-.2,12.42-.81,54.4-.14,73.1.65,18.33,5.82,69.41,8,90.53a.14.14,0,0,1-.12.14Z" fill="#18a0a8"/>
      <path id="Path_39388" data-name="Path 39388" d="M339,390.77a.12.12,0,0,1-.12-.11c-2.2-21.12-7.37-72.22-8-90.55-.67-18.71-.06-60.69.14-73.11a.12.12,0,0,1,.12-.12h0a.13.13,0,0,1,.13.12c-.2,12.42-.81,54.4-.14,73.1.65,18.33,5.82,69.41,8,90.53a.14.14,0,0,1-.12.14Z" fill="#fff" opacity="0.4"/>
      <path id="Path_39389" data-name="Path 39389" d="M334,394.75c-.05,0,.71,5.17.71,5.17h15.13l.41-4.61Z" fill="#18a0a8"/>
      <path id="Path_39390" data-name="Path 39390" d="M334,394.75c-.05,0,.71,5.17.71,5.17h15.13l.41-4.61Z" opacity="0.1"/>
    </g>
  </g>
</svg>
