<svg id="directions-24px" xmlns="http://www.w3.org/2000/svg" width="18.001" height="18.001" viewBox="0 0 18.001 18.001">
  <path id="Path_9927" data-name="Path 9927" d="M0,0H18V18H0Z" fill="none"/>
  <path id="Path_9928" data-name="Path 9928" d="M16.785,8.967l-6.75-6.75a.747.747,0,0,0-1.058,0l-6.75,6.75a.747.747,0,0,0,0,1.058l6.75,6.75a.747.747,0,0,0,1.058,0l6.75-6.75a.747.747,0,0,0,0-1.058ZM11,11.375V9.5H8v2.25H6.5v-3A.752.752,0,0,1,7.252,8H11V6.125L13.628,8.75Z" transform="translate(-0.502 -0.499)" fill="#3c67a4"/>
</svg>
