<svg id="share-24px_1_" data-name="share-24px (1)" xmlns="http://www.w3.org/2000/svg" width="18.003" height="18.003" viewBox="0 0 18.003 18.003">
  <path id="Path_9929" data-name="Path 9929" d="M0,0H18V18H0Z" fill="none"/>
  <path id="Path_9930" data-name="Path 9930" d="M14.252,12.562a2.184,2.184,0,0,0-1.47.578L7.433,10.027A2.456,2.456,0,0,0,7.5,9.5a2.456,2.456,0,0,0-.068-.525l5.289-3.083A2.245,2.245,0,1,0,12,4.25a2.456,2.456,0,0,0,.068.525L6.781,7.859a2.25,2.25,0,1,0,0,3.286l5.341,3.121a2.116,2.116,0,0,0-.06.488,2.19,2.19,0,1,0,2.19-2.19Z" transform="translate(-0.75 -0.5)" fill="#3c67a4"/>
</svg>
