<svg id="_360_black_24dp" data-name="360_black_24dp" xmlns="http://www.w3.org/2000/svg" width="18" height="18" viewBox="0 0 18 18">
  <path id="Path_39401" data-name="Path 39401" d="M0,0H18V18H0Z" fill="none"/>
  <path id="Path_39402" data-name="Path 39402" d="M9.5,7C5.36,7,2,8.68,2,10.75c0,1.68,2.2,3.1,5.25,3.578V16.75l3-3-3-3V12.8c-2.363-.42-3.75-1.425-3.75-2.047,0-.8,2.28-2.25,6-2.25s6,1.455,6,2.25c0,.547-1.095,1.418-3,1.9v1.537c2.648-.577,4.5-1.9,4.5-3.435C17,8.68,13.64,7,9.5,7Z" transform="translate(-0.5 -1.75)" fill="#3c67a4"/>
</svg>
